PathFileType	4	(X/Y/Z)	C:\Users\Basilio\Documents\Thesis Gigler\squatting_fais\c3dfiles\039\SLS_pre_front5\markers_experimental.trc
DataRate	CameraRate	NumFrames	NumMarkers	Units	OrigDataRate	OrigDataStartFrame	OrigNumFrames
200.000000	200.000000	4	63	mm	200.000000	249	1992
Frame#	Time	FHD			LBHD			RBHD			C7			T10			LSHO			LUUPA			LMUPA			LDUPA			LLEP			LMEP			LUL			LRFIN			RSHO			RUPA1			RMUPA			RDUPA			RLEP			RMEP			RRAD			RUL			RUFIN			LASI			RASI			USACR			LSACR			RSACR			LTHI1			LTHI2			LTHI3			LTHI4			LLFC			LMFC			LTIB1			LTIB2			LTIB3			LTIB4			LLMAL			LMMAL			LHEE			LMT1			LMT2			LMT5			RTHI			RTHI2			RTHI3			RTHI4			RLFC			RMFC			RTIB1			RTIB2			RTIB3			RTIB4			RLMAL			RMMAL			RHEE			RMT1			RMT2			RMT5			LRAD			CLAV			*61			*62			
		X1	Y1	Z1	X2	Y2	Z2	X3	Y3	Z3	X4	Y4	Z4	X5	Y5	Z5	X6	Y6	Z6	X7	Y7	Z7	X8	Y8	Z8	X9	Y9	Z9	X10	Y10	Z10	X11	Y11	Z11	X12	Y12	Z12	X13	Y13	Z13	X14	Y14	Z14	X15	Y15	Z15	X16	Y16	Z16	X17	Y17	Z17	X18	Y18	Z18	X19	Y19	Z19	X20	Y20	Z20	X21	Y21	Z21	X22	Y22	Z22	X23	Y23	Z23	X24	Y24	Z24	X25	Y25	Z25	X26	Y26	Z26	X27	Y27	Z27	X28	Y28	Z28	X29	Y29	Z29	X30	Y30	Z30	X31	Y31	Z31	X32	Y32	Z32	X33	Y33	Z33	X34	Y34	Z34	X35	Y35	Z35	X36	Y36	Z36	X37	Y37	Z37	X38	Y38	Z38	X39	Y39	Z39	X40	Y40	Z40	X41	Y41	Z41	X42	Y42	Z42	X43	Y43	Z43	X44	Y44	Z44	X45	Y45	Z45	X46	Y46	Z46	X47	Y47	Z47	X48	Y48	Z48	X49	Y49	Z49	X50	Y50	Z50	X51	Y51	Z51	X52	Y52	Z52	X53	Y53	Z53	X54	Y54	Z54	X55	Y55	Z55	X56	Y56	Z56	X57	Y57	Z57	X58	Y58	Z58	X59	Y59	Z59	X60	Y60	Z60	X61	Y61	Z61	X62	Y62	Z62	X63	Y63	Z63	

250	1.245	-303.2245483398438	1786.083129882813	-688.5693969726564	-461.7877502441407	1762.859619140625	-808.626647949219	-434.565887451172	1765.749877929688	-669.7819824218751	-498.8946838378907	1586.058959960938	-757.0119018554689	-485.4290771484376	1277.262451171875	-775.7349243164065	-423.1683959960939	1606.56884765625	-911.4847412109377	-247.718246459961	1579.600708007813	-1010.950988769531	-229.0681457519532	1613.720458984375	-979.114440917969	-179.3959655761719	1593.866088867188	-1006.797607421875	-114.2840347290039	1606.9951171875	-998.563171386719	-106.4441223144532	1536.52880859375	-963.8240356445315	159.7251281738282	1660.486328125	-979.4564208984377	238.8137969970704	1695.705444335938	-898.2780761718752	-394.4756774902345	1604.01025390625	-603.8269042968751	-220.1934204101563	1552.918334960938	-518.1798095703126	-198.1063079833985	1587.424682617188	-548.0665283203126	-152.3834991455078	1553.450317382813	-525.9980468750001	-92.19082641601564	1571.2490234375	-541.6821899414064	-85.97714233398439	1502.31787109375	-579.8724365234376	186.2008819580078	1627.716186523438	-641.4665527343751	192.174545288086	1619.484741210938	-566.0540771484376	273.3888549804688	1663.865356445313	-638.4348754882814	-307.5082397460938	1105.190185546875	-899.9534912109377	-294.0964355468751	1091.246215820313	-674.0945434570314	-486.1751403808595	1148.29638671875	-775.0676879882815	-488.7617187500001	1117.23291015625	-804.341979980469	-484.9815063476564	1114.902465820313	-744.9957275390626	-324.3987426757813	827.6756591796877	-988.1212158203127	-278.9005126953126	756.5127563476564	-991.0342407226565	-233.5393524169922	765.2583007812501	-980.498474121094	-298.1486206054688	698.6240844726564	-988.2489013671877	-283.8949279785157	581.8995361328126	-993.7230224609377	-256.0896301269532	546.7449951171876	-882.5381469726565	-243.1819763183594	428.8364257812501	-986.4019165039065	-313.9356689453126	401.2026367187501	-1031.12158203125	-275.1905212402344	389.778778076172	-1015.135620117188	-285.5691528320313	307.7598571777344	-983.8689575195315	-370.2367248535157	151.9567108154297	-1031.20361328125	-353.6093750000001	144.3773193359375	-947.1682128906252	-445.6168823242189	113.6740493774414	-995.928649902344	-220.3526000976563	57.49733352661134	-970.2835083007815	-225.5682678222657	56.6553421020508	-1013.545104980469	-273.2759704589844	43.06956481933594	-1064.71728515625	-321.9002075195313	815.3480224609377	-620.1438598632814	-276.8089294433594	765.7453613281251	-621.6682739257814	-245.9284362792969	772.8835449218752	-628.9194946289064	-296.2474975585938	683.5189208984376	-637.8655395507814	-319.2625732421876	543.6313476562501	-670.0750732421876	-286.4569396972657	543.1104736328126	-785.3936767578127	-286.6140441894532	332.5589904785157	-699.6066894531251	-375.0007629394532	271.1166687011719	-697.6257324218751	-329.9373779296876	259.5703430175782	-695.7965087890626	-314.0637817382813	213.103500366211	-732.3909301757814	-386.0726013183595	121.775619506836	-715.7719726562501	-353.1115417480469	141.3123626708985	-798.5249633789065	-452.1672668457032	103.3934173583985	-771.7383422851565	-228.4978790283204	54.3055877685547	-777.1340332031252	-233.6043395996094	56.98047256469728	-731.3771362304689	-289.9638977050782	40.64775085449219	-680.6568603515626	158.1902618408203	1656.572143554688	-903.492614746094	nan	nan	nan	nan	nan	nan	nan	nan	nan	
251	1.25	-302.9541320800782	1785.97802734375	-687.7376708984376	-461.7482910156251	1762.794799804688	-807.6708984375002	-434.4350585937501	1765.781616210938	-668.9850463867189	-499.0328369140626	1586.126831054688	-756.0740966796876	-485.9841308593751	1277.269775390625	-774.893005371094	-423.5252685546876	1606.755859375	-910.9550781250002	-247.8512268066407	1579.564453125	-1010.164611816406	-229.2515106201172	1613.636596679688	-978.3319091796877	-179.4812927246094	1593.701293945313	-1006.055541992188	-114.3295974731446	1606.859619140625	-997.7922363281252	-106.5958328247071	1536.401733398438	-963.0946044921877	159.5937194824219	1660.35009765625	-978.6791992187502	238.5993041992188	1695.522338867188	-897.3842773437502	-394.6676025390626	1603.93994140625	-602.8500366210939	-220.1458129882813	1552.657104492188	-517.5312500000001	-198.1498107910157	1587.261108398438	-547.1337890625001	-152.3126831054688	1553.329711914063	-525.3847656250001	-92.13153076171876	1570.934936523438	-540.9520263671876	-86.11161041259767	1502.237426757813	-579.0145874023439	186.4208984375	1627.899291992188	-640.7514648437501	192.1889343261719	1619.358032226563	-565.3632812500001	273.3577575683594	1663.764404296875	-637.7162475585939	-308.2148742675782	1105.180786132813	-899.5555419921877	-294.5572814941407	1091.185668945313	-673.5332031250001	-486.5667724609376	1148.069946289063	-774.5469970703127	-489.4991149902345	1117.112060546875	-803.6138916015627	-485.8564453125001	1114.732299804688	-744.2803344726564	-323.5831909179688	827.7135009765627	-987.4868774414065	-277.7971801757813	756.9660644531251	-990.4270019531252	-232.4543762207032	765.9175415039064	-979.8027954101565	-296.4825439453126	698.9436035156251	-987.6521606445315	-281.6789855957032	582.4417114257814	-993.1668090820315	-253.7251892089844	547.2203979492189	-881.644226074219	-241.352035522461	429.2816772460939	-985.9158935546877	-312.1152343750001	402.194061279297	-1030.539184570313	-273.5068664550782	390.184783935547	-1014.649047851563	-284.3854064941407	307.9232177734376	-983.4981689453127	-369.5050964355469	153.058822631836	-1030.795288085938	-352.7691650390626	145.2430267333985	-946.6016235351565	-444.7490234375001	115.1078262329102	-995.4416503906252	-219.9550170898438	57.52595138549806	-970.317321777344	-225.2974243164063	57.29648971557619	-1013.285827636719	-273.1296386718751	43.67247772216798	-1064.43798828125	-322.4193420410157	815.2598266601565	-619.4895019531251	-276.9118347167969	765.6643676757814	-621.2226562500001	-246.1300506591797	772.8817138671877	-628.4847412109376	-296.4158020019532	683.6454467773439	-637.2591552734376	-319.7478027343751	543.5209960937501	-670.0480957031251	-286.5839843750001	543.0773925781251	-784.9622802734377	-286.5904846191407	332.5632324218751	-699.3452148437501	-374.9954223632813	270.9951477050782	-697.4401245117189	-329.8601379394532	259.5327758789063	-695.5825195312501	-314.0182800292969	213.0695800781251	-732.2358398437501	-386.1321411132814	121.7551727294922	-715.6716308593751	-353.1287536621094	141.3397064208985	-798.4406738281252	-452.1455688476564	103.4005661010742	-771.7224121093752	-228.4771575927735	54.27679824829103	-777.123229980469	-233.5498046875001	56.91605377197267	-731.3981323242189	-289.8233642578126	40.58324813842774	-680.9320678710939	158.1916656494141	1656.25634765625	-902.573669433594	nan	nan	nan	nan	nan	nan	nan	nan	nan	
252	1.255	-302.7993774414063	1785.881591796875	-687.1463623046876	-461.7283325195314	1762.707641601563	-807.108337402344	-434.2320556640626	1765.737426757813	-668.2744140625001	-499.0569458007814	1586.045043945313	-755.1513061523439	-486.2366638183595	1277.185302734375	-774.1203613281252	-423.6443481445314	1606.705078125	-910.046813964844	-248.108139038086	1579.548706054688	-1009.446594238281	-229.4658355712891	1613.565063476563	-977.608581542969	-179.64990234375	1593.677001953125	-1005.291687011719	-114.5557403564453	1606.789672851563	-996.973815917969	-106.6676788330078	1536.329345703125	-962.4764404296877	159.4622955322266	1660.140625	-977.8238525390627	238.4249877929688	1695.3271484375	-896.406677246094	-394.653045654297	1603.83056640625	-602.0270385742189	-220.0992889404297	1552.512084960938	-516.7673339843751	-198.2385253906251	1587.136840820313	-546.2259521484376	-152.3077087402344	1553.283813476563	-524.5038452148439	-92.27735900878908	1570.796508789063	-540.3389892578126	-86.09313964843751	1502.105102539063	-578.3204956054689	186.4074859619141	1627.78759765625	-639.9669799804689	192.1867980957032	1619.173583984375	-564.6516723632814	273.3058166503907	1663.728881835938	-637.0372924804689	-309.1593017578126	1105.067504882813	-898.9412231445315	-295.7023620605469	1090.7412109375	-673.6467895507814	-487.3037109375001	1148.032348632813	-773.743103027344	-490.0626220703126	1117.144165039063	-802.9427490234377	-486.2441711425782	1114.5888671875	-743.5595703125001	-323.0160522460938	827.567321777344	-986.9663696289065	-276.6098022460938	757.1022338867189	-989.7041015625002	-231.3398742675782	766.4876098632814	-979.051940917969	-295.0443725585938	699.4694213867189	-987.032897949219	-279.6428527832032	583.0062255859376	-992.5211181640627	-251.7026519775391	547.7007446289064	-881.131286621094	-239.3129425048829	429.9627380371095	-985.2940063476565	-310.3840942382813	402.6707153320314	-1029.908325195313	-271.4681091308594	390.8483276367189	-1014.088989257813	-283.2907104492188	308.5049743652344	-982.8544921875002	-368.7675781250001	154.1369781494141	-1030.478515625	-352.3041687011719	145.913558959961	-946.4259033203127	-444.1749877929689	116.516357421875	-994.8521728515627	-219.5722045898438	57.94126129150392	-970.0253906250002	-224.8069610595704	58.03685760498048	-1013.065246582031	-272.8163146972657	44.75163650512696	-1064.174926757813	-322.7946777343751	815.248718261719	-618.8779296875001	-277.2048950195313	765.5234375000001	-620.8920898437501	-246.4186401367188	772.8572998046877	-627.9762573242189	-296.7124633789063	683.6180419921876	-636.7081298828126	-319.7835083007813	543.3422851562501	-669.5661621093751	-286.5918884277344	543.1028442382814	-784.5139160156252	-286.5781860351563	332.4973449707032	-699.0881958007814	-374.9669189453126	270.9547729492188	-697.2397460937501	-329.9103088378907	259.4118347167969	-695.3732910156251	-313.9836120605469	212.9697570800782	-732.0344238281251	-386.0989074707032	121.6658325195313	-715.5691528320314	-353.1713867187501	141.371337890625	-798.318542480469	-452.1640930175782	103.4273757934571	-771.655700683594	-228.5378417968751	54.2057342529297	-777.0962524414065	-233.5233306884766	56.81907272338869	-731.4564208984376	-289.8311462402344	40.52482223510743	-680.8874511718751	158.0688171386719	1655.851440429688	-901.7429199218752	nan	nan	nan	nan	nan	nan	nan	nan	nan	
253	1.26	-302.6698608398438	1785.911010742188	-686.6551513671876	-462.1195678710939	1762.59716796875	-805.9277343750002	-434.1389770507814	1765.456909179688	-667.3917846679689	-499.0859375000001	1586.017333984375	-754.3497924804689	-486.6999816894532	1277.197265625	-773.3535766601565	-423.8982543945314	1606.71630859375	-909.0650634765627	-248.2545471191407	1579.456909179688	-1008.656616210938	-229.5997009277344	1613.566650390625	-976.8441162109377	-179.7472686767578	1593.592895507813	-1004.486572265625	-114.7244415283203	1606.693603515625	-996.2562255859377	-106.9320907592774	1536.208129882813	-961.7980957031252	159.4195098876953	1659.901245117188	-977.0166015625002	238.2207641601563	1695.127563476563	-895.6441650390627	-394.5925292968751	1603.62939453125	-601.3182373046876	-220.074203491211	1552.300048828125	-515.8416748046876	-198.1418762207032	1587.06884765625	-545.5852661132814	-152.430908203125	1553.328125	-523.5870361328126	-92.21390533447267	1570.674438476563	-539.5155639648439	-86.0505828857422	1501.952758789063	-577.5646362304689	186.3740997314453	1627.628173828125	-639.2410888671876	192.2109832763672	1618.983520507813	-563.8622436523439	273.2896118164063	1663.696899414063	-636.3877563476564	-309.8587646484376	1105.024169921875	-898.3629150390627	-296.1730346679688	1090.581420898438	-673.1026000976564	-487.7845153808595	1148.109741210938	-772.9914550781252	-490.6575012207032	1117.13037109375	-802.2974243164065	-486.4471740722657	1114.37841796875	-742.8720092773439	-322.2390747070313	827.6907348632815	-986.3516235351565	-275.5233459472657	757.3798828125001	-989.0552978515627	-230.7444458007813	767.4899291992189	-978.633239746094	-293.4738769531251	699.6851196289064	-986.5049438476565	-277.4132995605469	583.5623779296876	-991.9380493164065	-249.7891235351563	548.4156494140626	-880.481384277344	-237.4086608886719	430.6826477050782	-984.501892089844	-308.2648925781251	403.5455322265626	-1029.399047851563	-270.3492736816407	391.4276428222657	-1013.150268554688	-281.6193237304688	309.4217529296876	-982.3963623046877	-367.8999633789063	155.1197357177735	-1030.11376953125	-350.6249389648438	147.0695953369141	-945.8945922851565	-443.659149169922	117.933334350586	-994.2452392578127	-219.0713195800782	58.52711105346681	-969.8270263671877	-224.3445129394532	58.57598114013673	-1012.730285644531	-272.8916625976563	45.07569885253907	-1064.060791015625	-323.1791992187501	815.1533813476565	-618.3818969726564	-277.5015563964844	765.4865112304689	-620.2437744140626	-246.7241973876954	772.8015136718752	-627.4559326171876	-296.8944396972657	683.5727539062501	-636.2306518554689	-319.9775695800782	543.2779541015626	-669.0593261718751	-286.6027221679688	543.0859985351564	-784.0398559570315	-286.5783691406251	332.4488220214844	-698.8705444335939	-375.0375976562501	270.8439636230469	-697.0864868164064	-329.9260559082032	259.4363098144532	-695.1412963867189	-313.9942321777344	212.8760375976563	-731.8628540039064	-386.1849975585939	121.6951065063477	-715.4869995117189	-353.1258239746094	141.4335479736328	-798.2062988281252	-452.1768188476564	103.4178924560547	-771.6037597656252	-228.5365142822266	54.16624832153322	-777.0640869140627	-233.5202178955079	56.79893493652345	-731.4423217773439	-289.8667602539063	40.44725799560548	-680.8858642578126	157.9246673583985	1655.743896484375	-900.984558105469	nan	nan	nan	nan	nan	nan	nan	nan	nan	
